<svg width="24" height="24" viewBox="0 0 24 24" fill="none" xmlns="http://www.w3.org/2000/svg">
<path d="M20.4701 1.99999H3.53006C3.33964 1.99734 3.15056 2.03223 2.97362 2.10267C2.79669 2.17311 2.63536 2.27771 2.49886 2.4105C2.36235 2.54329 2.25334 2.70167 2.17805 2.8766C2.10276 3.05152 2.06267 3.23957 2.06006 3.42999V20.57C2.06267 20.7604 2.10276 20.9485 2.17805 21.1234C2.25334 21.2983 2.36235 21.4567 2.49886 21.5895C2.63536 21.7223 2.79669 21.8269 2.97362 21.8973C3.15056 21.9677 3.33964 22.0026 3.53006 22H20.4701C20.6605 22.0026 20.8496 21.9677 21.0265 21.8973C21.2034 21.8269 21.3648 21.7223 21.5013 21.5895C21.6378 21.4567 21.7468 21.2983 21.8221 21.1234C21.8974 20.9485 21.9375 20.7604 21.9401 20.57V3.42999C21.9375 3.23957 21.8974 3.05152 21.8221 2.8766C21.7468 2.70167 21.6378 2.54329 21.5013 2.4105C21.3648 2.27771 21.2034 2.17311 21.0265 2.10267C20.8496 2.03223 20.6605 1.99734 20.4701 1.99999ZM8.09006 18.74H5.09006V9.73999H8.09006V18.74ZM6.59006 8.47999C6.17632 8.47999 5.77953 8.31563 5.48697 8.02307C5.19442 7.73052 5.03006 7.33372 5.03006 6.91999C5.03006 6.50625 5.19442 6.10946 5.48697 5.8169C5.77953 5.52434 6.17632 5.35999 6.59006 5.35999C6.80975 5.33507 7.03224 5.35684 7.24293 5.42387C7.45363 5.4909 7.6478 5.60168 7.81272 5.74895C7.97763 5.89622 8.10958 6.07667 8.19993 6.27847C8.29028 6.48027 8.33698 6.69888 8.33698 6.91999C8.33698 7.14109 8.29028 7.3597 8.19993 7.5615C8.10958 7.76331 7.97763 7.94375 7.81272 8.09103C7.6478 8.2383 7.45363 8.34907 7.24293 8.4161C7.03224 8.48313 6.80975 8.5049 6.59006 8.47999ZM18.9101 18.74H15.9101V13.91C15.9101 12.7 15.4801 11.91 14.3901 11.91C14.0527 11.9125 13.7242 12.0183 13.4489 12.2132C13.1735 12.4081 12.9645 12.6827 12.8501 13C12.7718 13.235 12.7379 13.4826 12.7501 13.73V18.73H9.75006C9.75006 18.73 9.75006 10.55 9.75006 9.72999H12.7501V11C13.0226 10.5271 13.419 10.1375 13.8965 9.87319C14.374 9.60887 14.9146 9.47984 15.4601 9.49999C17.4601 9.49999 18.9101 10.79 18.9101 13.56V18.74Z" fill="black"/>
</svg>
